<?xml version="1.0" standalone="no"?><!DOCTYPE svg PUBLIC "-//W3C//DTD SVG 1.1//EN" "http://www.w3.org/Graphics/SVG/1.1/DTD/svg11.dtd"><svg t="1684465782314" class="icon" viewBox="0 0 1024 1024" version="1.1" xmlns="http://www.w3.org/2000/svg" p-id="14512" xmlns:xlink="http://www.w3.org/1999/xlink" width="200" height="200"><path d="M661.333333 68.266667v76.8H234.666667a89.6 89.6 0 0 0-89.493334 85.12L145.066667 234.666667v554.666666a89.6 89.6 0 0 0 85.12 89.493334l4.48 0.106666h554.666666a89.6 89.6 0 0 0 89.493334-85.12L878.933333 789.333333V448h76.8v341.333333a166.4 166.4 0 0 1-161.109333 166.314667L789.333333 955.733333H234.666667a166.4 166.4 0 0 1-166.314667-161.109333L68.266667 789.333333V234.666667a166.4 166.4 0 0 1 161.109333-166.314667L234.666667 68.266667h426.666666z m228.842667 11.242666l54.314667 54.314667-469.333334 469.333333-54.314666-54.314666 469.333333-469.333334z" fill="#8992c8" p-id="14513"></path></svg>