<?xml version="1.0" standalone="no"?><!DOCTYPE svg PUBLIC "-//W3C//DTD SVG 1.1//EN" "http://www.w3.org/Graphics/SVG/1.1/DTD/svg11.dtd"><svg t="1685248154748" class="icon" viewBox="0 0 1024 1024" version="1.1" xmlns="http://www.w3.org/2000/svg" p-id="11184" xmlns:xlink="http://www.w3.org/1999/xlink" width="200" height="200"><path d="M64 160m96 0l704 0q96 0 96 96l0 512q0 96-96 96l-704 0q-96 0-96-96l0-512q0-96 96-96Z" fill="#05c695" p-id="11185" data-spm-anchor-id="a313x.7781069.0.i38" class="selected"></path><path d="M64 272H960v96H64z" fill="#FFFFFF" opacity=".75" p-id="11186"></path><path d="M756.6 640l24.9 24.9 12.8 12.8a12.2 12.2 0 0 1 0 17.3L760 730a12.4 12.4 0 0 1-17.3 0l-4.4-4.4-4.3 4.4a12.4 12.4 0 0 1-17.3 0l-34.7-34.7a12.2 12.2 0 0 1 0-17.3L720 640v42.1h36.8zM667.8 551.5l1.2 1 12.8 12.9L706.9 590h-42.1v36.7h42.1l-25.1 25.1-12.8 13.2a12.2 12.2 0 0 1-16.2 1l-1.1-1-34.6-35a12.4 12.4 0 0 1-1.1-16.2l1.1-1.1 4.3-4.4-4.3-4.3a12.2 12.2 0 0 1-1.1-16.2l1.1-1.1 34.6-34.6a12.1 12.1 0 0 1 16.1-1zM823.6 551.5l1.2 1 34.6 34.6a12.2 12.2 0 0 1 1 16.2l-1 1.1-4.3 4.4 4.3 4.3a12.2 12.2 0 0 1 1 16.2l-1 1.1-34.6 34.6a12.2 12.2 0 0 1-16.2 1l-1.1-1-12.8-12.8L770 627.1h42.1V590H770l37.9-37.8a12.1 12.1 0 0 1 16.1-1.1zM733.9 487.6l4.4 4.3 4.3-4.3a12.2 12.2 0 0 1 17.3 0l34.7 34.6a12.4 12.4 0 0 1 0 17.3l-12.9 12.9-25 24.9v-42H720v42.1L682 540a12.2 12.2 0 0 1 0-17.3l34.6-34.6a12.2 12.2 0 0 1 17.3 0z" fill="#FFFFFF" p-id="11187"></path><path d="M160 512m32 0l192 0q32 0 32 32l0 0q0 32-32 32l-192 0q-32 0-32-32l0 0q0-32 32-32Z" fill="#FFFFFF" opacity=".75" p-id="11188"></path><path d="M160 640m32 0l288 0q32 0 32 32l0 0q0 32-32 32l-288 0q-32 0-32-32l0 0q0-32 32-32Z" fill="#FFFFFF" opacity=".75" p-id="11189"></path></svg>