<?xml version="1.0" standalone="no"?><!DOCTYPE svg PUBLIC "-//W3C//DTD SVG 1.1//EN" "http://www.w3.org/Graphics/SVG/1.1/DTD/svg11.dtd"><svg t="1684407943802" class="icon" viewBox="0 0 1024 1024" version="1.1" xmlns="http://www.w3.org/2000/svg" p-id="1769" xmlns:xlink="http://www.w3.org/1999/xlink" width="200" height="200"><path d="M191.22 958.69a23.65 23.65 0 0 1-4.17-0.36 24 24 0 0 1-15.67-9.93 23.49 23.49 0 0 1-3.92-17.75l103.71-578c-19.51-11.79-35.19-32.5-44.56-59.07-10.17-28.82-12.41-63.4-6.32-97.34 7-39 24.07-74 48.07-98.53C293.24 72.31 322.62 61 351.1 66c21.7 3.76 40.8 16.63 55.22 37.24 22.75 32.49 31.14 80.81 22.45 129.25-12.84 71.64-59.56 126.28-110.53 131L215 939a24.12 24.12 0 0 1-23.78 19.69zM338 82.84c-19.39 0-39.23 9.52-56.8 27.47-21.49 21.95-36.84 53.6-43.21 89.1-11.2 62.42 8.62 121.46 47.13 140.39l6.09 3-106 591.05a5.59 5.59 0 0 0 0.95 4.24 6.21 6.21 0 0 0 11.13-2.27l105.87-590H311c21.06 0 42.73-11.35 61.05-32 19.24-21.68 33.08-51.71 39-84.57 7.87-43.82 0.59-87.1-19.47-115.75C380 96.94 364.9 86.63 348 83.7a58.91 58.91 0 0 0-10-0.86z" fill="#FF0000" p-id="1770"></path><path d="M488.8173 75.953711l17.57985-4.710506 234.370999 874.684473-17.57985 4.710506-234.370999-874.684473Z" fill="#FF0000" p-id="1771"></path><path d="M621.254399 75.955673l17.57985-4.710506 234.370998 874.684472-17.57985 4.710507-234.370998-874.684473Z" fill="#FF0000" p-id="1772"></path></svg>