<?xml version="1.0" standalone="no"?><!DOCTYPE svg PUBLIC "-//W3C//DTD SVG 1.1//EN" "http://www.w3.org/Graphics/SVG/1.1/DTD/svg11.dtd"><svg t="1684407310049" class="icon" viewBox="0 0 1024 1024" version="1.1" xmlns="http://www.w3.org/2000/svg" p-id="2572" xmlns:xlink="http://www.w3.org/1999/xlink" width="200" height="200"><path d="M765.823939 720.823026c-5.818519 8.345062-3.76986 19.826558 4.576225 25.644053 8.346085 5.818519 19.826558 3.768837 25.644053-4.576225 43.642986-62.60485 75.646887-131.585921 95.120404-205.028607 15.557324-58.674331 23.186072-120.28248 22.673395-183.113481-0.873903-107.075691-24.888853-180.070168-25.910113-183.124737-2.491751-7.448646-9.432837-12.497639-17.286712-12.57541-199.24795-1.970888-300.879652-89.660042-335.367117-127.327944-2.113127-2.334161-11.394515-11.595083-26.167986-12.45773-7.540743-0.440022-19.045775 1.279133-30.981618 11.977799-0.432859 0.387833-0.847298 0.796132-1.24127 1.223874-103.628172 112.286366-268.574898 125.930107-334.682525 126.585023-8.15575 0.080841-15.288195 5.51562-17.528212 13.359262-0.390903 1.367137-9.637498 34.112935-15.561417 87.592964-5.435803 49.085952-8.964162 125.85029 5.102205 212.800617 15.845896 97.953939 50.308803 188.583053 102.430904 269.368984 65.025992 100.787474 157.74265 186.252984 275.575336 254.022461 2.366907 1.360997 5.007037 2.179642 7.728008 2.394537l2.535753 0.200568c0.48607 0.038886 0.971118 0.058328 1.455141 0.058328 3.215228 0 6.382361-0.841158 9.18315-2.451842 56.915267-32.733519 109.072161-69.930699 155.027819-110.561072 5.285377-4.143367 71.255881-55.184857 119.226428-61.700247 10.080589-1.369184 17.141402-10.650571 15.772218-20.73116-1.370207-10.081613-10.657734-17.152658-20.73116-15.772218-59.842946 8.127098-134.420479 67.152423-137.567145 69.661569-0.246617 0.196475-0.488117 0.400113-0.723477 0.608867-42.011836 37.190017-89.50757 71.429843-141.281747 101.856829-108.699678-63.886029-194.368826-143.504368-254.727519-236.758262-49.371454-76.277244-82.105996-161.936159-97.295953-254.596536-21.170159-129.138172-1.976004-236.591463 6.095835-272.801153 85.770456-2.565429 163.190733-20.509103 230.319619-53.404304 57.494459-28.173666 94.758154-61.10673 116.050086-84.026742 3.2623-2.784416 4.119831-2.197038 4.929266-1.450025 21.056572 22.973224 58.260915 56.280818 116.13809 84.859713 67.584258 33.373085 145.643078 51.53063 232.217852 54.039777 6.53995 24.321942 19.805068 82.867336 20.429285 159.429059 0.48607 59.544141-6.729262 117.873618-21.444405 173.370583C837.18829 596.689844 806.997688 661.759839 765.823939 720.823026z" fill="#FF9000" p-id="2573"></path><path d="M277.44594 278.461059c9.709129-3.034103 15.121396-13.365402 12.087293-23.074531-3.034103-9.710153-13.363356-15.120372-23.075555-12.087293-20.204158 6.313799-47.700395 9.003048-47.968501 9.028631-8.190543 0.779759-14.870686 6.898107-16.366759 14.988366-0.582261 3.15076-14.074553 78.3126 2.344395 178.759313 1.476631 9.033747 9.290597 15.4509 18.155499 15.4509 0.986467 0 1.988284-0.079818 2.994194-0.24457 10.039657-1.641383 16.847713-11.110035 15.20633-21.149693-11.474332-70.195735-7.224542-128.019699-4.311189-152.934135C247.749594 285.575084 263.650749 282.772248 277.44594 278.461059z" fill="#FF9000" p-id="2574"></path></svg>