<?xml version="1.0" standalone="no"?><!DOCTYPE svg PUBLIC "-//W3C//DTD SVG 1.1//EN" "http://www.w3.org/Graphics/SVG/1.1/DTD/svg11.dtd"><svg t="1684408074227" class="icon" viewBox="0 0 1024 1024" version="1.1" xmlns="http://www.w3.org/2000/svg" p-id="4152" xmlns:xlink="http://www.w3.org/1999/xlink" width="200" height="200"><path d="M82.448516 373.000258l3.534452 5.020903a230.135742 230.135742 0 0 1 0 277.900387 97.313032 97.313032 0 0 0 87.898838 155.515871l6.672517-0.726709a229.243871 229.243871 0 0 1 235.751225 139.396129 97.213935 97.213935 0 0 0 177.845678 3.336258l3.501419-7.531355a234.727226 234.727226 0 0 1 238.88929-134.639484 97.775484 97.775484 0 0 0 94.075871-148.513032l-4.294193-6.408258a241.465806 241.465806 0 0 1-5.384258-270.864516l6.276129-9.149936a97.775484 97.775484 0 0 0-84.925936-154.128516l-5.747613 0.462452a229.904516 229.904516 0 0 1-231.985548-127.70271l-5.219097-11.429161a97.874581 97.874581 0 0 0-176.590451-5.384258l-2.543484 5.384258a236.180645 236.180645 0 0 1-241.135484 139.528258l-5.186065-0.561549a97.313032 97.313032 0 0 0-91.43329 150.494968z m42.314323-104.976516a64.280774 64.280774 0 0 1 45.617548-12.651355l5.219097 0.561548a269.212903 269.212903 0 0 0 274.828387-159.083354 64.842323 64.842323 0 0 1 118.684903 0l1.486452 3.435354a262.936774 262.936774 0 0 0 269.60929 155.251613 64.743226 64.743226 0 0 1 60.019613 101.739355l-0.891871 1.255226a274.498065 274.498065 0 0 0-5.747613 308.422194l6.639484 9.711483a64.743226 64.743226 0 0 1-60.019613 101.739355 267.759484 267.759484 0 0 0-272.516129 153.6l-3.501419 7.564387a64.181677 64.181677 0 0 1-117.429678-2.180129 262.276129 262.276129 0 0 0-260.855742-160.305548l-15.525161 1.486452a64.280774 64.280774 0 0 1-58.037677-102.730323 263.168 263.168 0 0 0 0-317.770323 64.280774 64.280774 0 0 1 12.420129-90.045935z" fill="#0061b2" p-id="4153"></path><path d="M518.342194 346.310194a162.386581 162.386581 0 1 0 0 324.773161 162.386581 162.386581 0 0 0 0-324.773161z m0 33.032258a129.354323 129.354323 0 1 1 0 258.708645 129.354323 129.354323 0 0 1 0-258.708645z" fill="#0061b2" p-id="4154"></path></svg>