<?xml version="1.0" standalone="no"?><!DOCTYPE svg PUBLIC "-//W3C//DTD SVG 1.1//EN" "http://www.w3.org/Graphics/SVG/1.1/DTD/svg11.dtd"><svg t="1684406997889" class="icon" viewBox="0 0 1024 1024" version="1.1" xmlns="http://www.w3.org/2000/svg" p-id="4154" xmlns:xlink="http://www.w3.org/1999/xlink" width="200" height="200"><path d="M803.714 203.868H220.286c-84.62 0-153.464 68.844-153.464 153.464v350.585c0 84.621 68.844 153.464 153.464 153.464h583.427c84.621 0 153.464-68.843 153.464-153.464V357.332c0-84.62-68.843-153.464-153.463-153.464z m-583.428 52.918h583.427c55.44 0 100.545 45.104 100.545 100.545v33.074H119.741v-33.074c0-55.44 45.104-100.545 100.545-100.545z m583.428 551.676H220.286c-55.441 0-100.545-45.105-100.545-100.545V443.324h784.518v264.593c0 55.441-45.105 100.545-100.545 100.545z" fill="#E75934" p-id="4155"></path><path d="M337.615 681.011l-51.235-163.82h-73.533l85.972 227.64h76.242l84.526-227.64h-71.392zM485.364 517.191h70.496v227.64h-70.496zM722.942 517.191H606.016v227.64h70.653v-84.472h38.509c28.362 0 49.456-6.469 63.276-19.41 13.82-12.939 20.729-30.901 20.729-53.882 0-22.36-6.342-39.596-19.021-51.708-12.681-12.113-31.755-18.168-57.22-18.168z m-0.465 89.984c-5.488 4.712-15.011 7.066-28.572 7.066h-17.236v-50.778H696.7c13.146 0 22.1 2.484 26.864 7.455 4.76 4.969 7.143 11.024 7.143 18.167-0.001 7.352-2.745 13.381-8.23 18.09z" fill="#E75934" p-id="4156"></path></svg>