<?xml version="1.0" standalone="no"?><!DOCTYPE svg PUBLIC "-//W3C//DTD SVG 1.1//EN" "http://www.w3.org/Graphics/SVG/1.1/DTD/svg11.dtd"><svg t="1684400878180" class="icon" viewBox="0 0 1024 1024" version="1.1" xmlns="http://www.w3.org/2000/svg" p-id="2625" xmlns:xlink="http://www.w3.org/1999/xlink" width="200" height="200"><path d="M921.6 614.4V512H1024v102.4H921.6z m0-614.4H1024v409.6H921.6V0zM716.8 204.8h102.4v409.6H716.8V204.8z m0-204.8h102.4v102.4H716.8V0zM1024 1024H716.8V716.8H1024V1024zM921.6 819.2H819.2v102.4h102.4V819.2zM204.8 921.6h409.6V1024H204.8V921.6zM512 716.8h102.4v102.4H512V716.8zM0 0h614.4v614.4H0V0z m102.4 512H512V102.4H102.4V512z m102.4-307.2h204.8v204.8H204.8V204.8z m204.8 614.4H0V716.8h409.6v102.4zM102.4 1024H0V921.6h102.4V1024z" p-id="2626" fill="#2c2c2c"></path></svg>